<?xml version="1.0" standalone="no"?>
<!DOCTYPE svg PUBLIC "-//W3C//DTD SVG 20010904//EN"
 "http://www.w3.org/TR/2001/REC-SVG-20010904/DTD/svg10.dtd">
<svg version="1.0" xmlns="http://www.w3.org/2000/svg"
 width="201.000000pt" height="192.000000pt" viewBox="0 0 201.000000 192.000000"
 preserveAspectRatio="xMidYMid meet">
<metadata>
Created by potrace 1.16, written by Peter Selinger 2001-2019
</metadata>
<g transform="translate(0.000000,192.000000) scale(0.100000,-0.100000)"
fill="#000000" stroke="none">
<path d="M820 1810 c-111 -24 -247 -87 -342 -159 -65 -49 -178 -165 -178 -182
0 -5 68 -9 165 -9 l165 0 120 -60 120 -60 0 -125 0 -125 135 0 135 0 0 125 0
124 108 60 107 61 178 0 c97 0 177 4 177 9 0 16 -121 140 -183 187 -75 57
-195 115 -297 144 -112 32 -287 36 -410 10z"/>
<path d="M215 1331 c-9 -16 -55 -141 -55 -151 0 -6 73 -10 190 -10 l190 0 94
-39 95 -39 6 27 c6 29 0 140 -9 148 -2 3 -40 20 -83 39 l-78 34 -172 0 c-97 0
-174 -4 -178 -9z"/>
<path d="M1353 1300 l-83 -39 0 -80 c0 -58 4 -81 13 -81 6 0 52 16 101 35 l89
35 189 0 c144 0 188 3 187 13 0 6 -13 44 -28 82 l-27 70 -179 2 -180 2 -82
-39z"/>
<path d="M141 1040 c-20 -12 -8 -203 18 -305 79 -302 315 -543 611 -624 41
-12 78 -21 82 -21 5 0 8 31 8 68 l0 69 -56 12 c-72 16 -185 75 -262 135 -138
109 -243 290 -270 468 -5 32 -7 60 -4 63 3 3 338 5 744 5 l738 0 -5 -22 c-2
-13 -9 -49 -14 -80 -31 -177 -159 -369 -317 -473 -65 -43 -170 -90 -226 -100
l-38 -7 0 -69 c0 -38 3 -69 6 -69 3 0 34 7 68 16 302 78 549 326 626 629 26
102 39 293 20 305 -17 11 -1712 11 -1729 0z"/>
<path d="M395 773 c34 -139 177 -308 317 -376 109 -53 192 -70 308 -64 267 13
470 167 566 430 l13 37 -606 0 -605 0 7 -27z m985 -112 c0 -5 -25 -32 -56 -61
-98 -89 -203 -130 -334 -130 -108 0 -215 33 -282 88 -62 50 -90 77 -99 93 -9
18 3 19 381 19 224 0 390 -4 390 -9z"/>
</g>
</svg>
